<?xml version="1.0" encoding="utf-8"?>
<!DOCTYPE svg PUBLIC "-//W3C//DTD SVG 1.1 Tiny//EN" "http://www.w3.org/Graphics/SVG/1.1/DTD/svg11-tiny.dtd">
<svg version="1.1" baseProfile="tiny" id="Layer_1" xmlns="http://www.w3.org/2000/svg" xmlns:xlink="http://www.w3.org/1999/xlink"
	 x="0px" y="0px" width="80px" height="40px" viewBox="0 0 80 40" xml:space="preserve">
<path fill="#ffffff" d="M80,34.1c0,2.8-2.2,5-5,5H10.6C4.8,39.1,0,34.3,0,28.5c0-5.8,4.7-10.6,10.6-10.6c1.5,0,2.9,0.3,4.2,0.9
	c2.2-5.3,7.4-9.1,13.6-9.1c0.9,0,1.7,0.1,2.6,0.2c3.4-5.4,9.3-9,16.2-9c10.1,0,18.4,7.9,19,17.8h0c5.6,0,10.1,4.5,10.1,10.2
	c0,0.1,0,0.2,0,0.3C78.4,29.8,80,31.8,80,34.1z"/>
</svg>
