<?xml version="1.0" encoding="utf-8"?>
<!-- Generator: Adobe Illustrator 16.0.0, SVG Export Plug-In . SVG Version: 6.00 Build 0)  -->
<!DOCTYPE svg PUBLIC "-//W3C//DTD SVG 1.1 Tiny//EN" "http://www.w3.org/Graphics/SVG/1.1/DTD/svg11-tiny.dtd">
<svg class="icon" alt="dribbble" version="1.1" baseProfile="tiny" id="Layer_1" xmlns="http://www.w3.org/2000/svg" xmlns:xlink="http://www.w3.org/1999/xlink"
	 x="0px" y="0px" width="500px" height="500px" viewBox="0 0 500 500" xml:space="preserve">
<path d="M250,498.2C113.1,498.2,1.8,386.9,1.8,250C1.8,113.1,113.1,1.8,250,1.8c136.9,0,248.2,111.4,248.2,248.2
	S386.9,498.2,250,498.2z M459.3,284c-7.3-2.3-65.6-19.7-132.1-9.1c27.7,76.2,39,138.3,41.2,151.2C416,393.9,449.9,343,459.3,284z
	 M332.8,445.5c-3.2-18.6-15.5-83.4-45.2-160.8c-0.5,0.2-0.9,0.3-1.4,0.5c-119.6,41.7-162.5,124.6-166.3,132.4
	c36,28,81.1,44.8,130.1,44.8C279.4,462.3,307.4,456.3,332.8,445.5z M92.5,392.1c4.8-8.2,63-104.6,172.3-139.9
	c2.8-0.9,5.6-1.7,8.4-2.5c-5.3-12-11.1-24.1-17.2-36C150.1,245.4,47.4,244,38.1,243.8c-0.1,2.2-0.1,4.3-0.1,6.5
	C38,304.8,58.6,354.5,92.5,392.1z M42.5,206.9c9.5,0.1,96.8,0.5,196-25.8c-35.1-62.4-73-115-78.6-122.6
	C100.5,86.4,56.2,141.1,42.5,206.9z M200.3,44.2c5.9,7.8,44.4,60.3,79.1,124.1c75.4-28.3,107.3-71.2,111.1-76.6
	C353.1,58.5,303.9,38.3,250,38.3C232.9,38.3,216.3,40.4,200.3,44.2z M414.1,116.2c-4.5,6.1-40,51.6-118.4,83.6
	c4.9,10.1,9.7,20.4,14.1,30.7c1.6,3.7,3.1,7.3,4.6,10.9c70.5-8.9,140.7,5.3,147.6,6.8C461.5,198.3,443.7,152.3,414.1,116.2z"/>
</svg>
