<?xml version="1.0" encoding="utf-8"?>
<!-- Generator: Adobe Illustrator 16.0.0, SVG Export Plug-In . SVG Version: 6.00 Build 0)  -->
<!DOCTYPE svg PUBLIC "-//W3C//DTD SVG 1.1 Tiny//EN" "http://www.w3.org/Graphics/SVG/1.1/DTD/svg11-tiny.dtd">
<svg class="icon" alt="rdio" version="1.1" baseProfile="tiny" id="Layer_1" xmlns="http://www.w3.org/2000/svg" xmlns:xlink="http://www.w3.org/1999/xlink"
	 x="0px" y="0px" width="500px" height="500px" viewBox="0 0 500 500" xml:space="preserve">
<path d="M114.9,121.5c-24.8,0-46.1,8.2-64,24.6C32.3,163.6,23,185.5,23,211.7c0,17.5,5.1,33.9,15.3,49.2
	c9.1,14.2,18.6,23.3,31.1,27.4v1.1c-12.5,5.1-18,17.8-18,38.3c0,15.7,5.5,27.4,18,35v1.1c-34.5,11.3-50.3,32.3-50.3,62.9
	c0,26.6,11.6,46.1,34.2,58.5c17.9,9.9,40.8,14.8,68.5,14.8c67.5,0,101.3-28.3,101.3-84.8c0-35.4-26-57.1-78.2-65.1
	c-12-1.8-21.1-6.2-27.3-13.1c-4.7-4.7-7.1-9.5-7.1-14.2c0-13.5,7.3-21.3,21.9-23.5c22.2-3.3,40.4-13.6,54.4-30.9
	c14-17.3,21.1-37.7,21.1-61c0-7.3-2.2-15.1-5.1-23.5c9.5-2.2,16.1-4.2,21.1-6v-56.3c-22,8.8-42.5,13.1-60,13.1
	C148.6,125.8,132.8,121.5,114.9,121.5z M120.9,394.4c30.6,0,45.9,9.3,45.9,27.9c0,19.7-14,29.5-42.1,29.5
	c-32.1,0-48.1-9.5-48.1-28.4C76.6,404.1,91.4,394.4,120.9,394.4z M117.1,250c-23,0-34.5-12.6-34.5-37.7c0-27,11.5-40.5,34.5-40.5
	c10.9,0,19.5,4.2,25.7,12.6c5.1,7.7,7.7,16.8,7.7,27.4C150.5,237.2,139.3,250,117.1,250z M283.4,0.1c-10.6,0-19.6,4-27.1,12
	s-11.2,17.7-11.2,29c0,10.9,3.7,20.4,11.2,28.4s16.5,12,27.1,12c10.2,0,19.1-4,26.5-12c7.5-8,11.2-17.5,11.2-28.4
	c0-11.3-3.7-21-11.2-29S293.6,0.1,283.4,0.1z M314,125h-61.8c0.7,7-0.3,17.6-0.3,34.7v170.1c0,17.5,1,31.6,0.3,37.1H314
	c-0.7-8-2.6-21.8-2.6-40.4V158.7C311.4,142.6,313.3,132,314,125z M450.3,314.5c-16,0-24-12.2-24-36.6V177h24.3
	c4.4,0,8.3-0.2,13.2,0.1c4.9,0.4,6.9,0.1,9.4,0.1V125h-47v-23.2c0-8.7,1.4-16.8,2.5-21.7h-63.4c1.1,5,1,12.6,1,22.8V125h-27.5v52.2
	c7.5-1.1,14.2-1.6,18.9-1.6l8.5,0.5v0.3l0,0v98.7c0,30.6,3.9,53,11.5,67.3c10.2,19,28.1,28.4,54.8,28.4c19,0,35.7-3.6,48.2-10.9
	v-54.7C470.9,311.4,461.6,314.5,450.3,314.5z"/>
</svg>
