<svg version="1.1" baseProfile="tiny" id="Layer_1" xmlns="http://www.w3.org/2000/svg" xmlns:xlink="http://www.w3.org/1999/xlink"
	 x="0px" y="0px" width="30px" height="30px" viewBox="0 0 500 500" xml:space="preserve">
<path class="icon" d="M203.9,217.6c0,17.3-14,31.4-31.4,31.4s-31.4-14-31.4-31.4s14-31.4,31.4-31.4S203.9,200.3,203.9,217.6z
	 M360.8,186.2c-17.3,0-31.4,14-31.4,31.4s14,31.4,31.4,31.4s31.4-14,31.4-31.4S378.1,186.2,360.8,186.2z M454.9,5.8v211.8
	c0,51.8-42.4,94.1-94.1,94.1h-27.6c12.3,14.9,19.8,34.1,19.8,54.9v117.7c0,8.7-7,15.7-15.7,15.7s-15.7-7-15.7-15.7v-94.1
	c0-10.2-6.6-18.9-15.7-22.2v116.3c0,8.7-7,15.7-15.7,15.7s-15.7-7-15.7-15.7V366.7h-15.7v117.7c0,8.7-7,15.7-15.7,15.7
	c-8.7,0-15.7-7-15.7-15.7V368c-9.1,3.2-15.7,12-15.7,22.2v94.1c0,8.7-7,15.7-15.7,15.7s-15.7-7-15.7-15.7V405c0,0,0,0,0,0
	c-9.9,5.4-22.7,8.7-39.2,8.7c-27.8,0-62.9-17.2-89.5-43.8c-3.1-3.1-4.6-7.1-4.6-11.1c0-4,1.5-8,4.6-11.1c3.1-3.1,7.1-4.6,11.1-4.6
	c4,0,8,1.5,11.1,4.6c20.4,20.4,48.1,34.6,67.3,34.6c23,0,34.9-8.2,39.7-27.3c0.2-0.6,0.4-1.2,0.6-1.8c0,0,0,0,0,0
	c2.5-15.6,9.1-29.8,18.7-41.4h-27.6c-51.8,0-94.1-42.4-94.1-94.1V5.8c0-3,1.7-5.8,4.4-7.1C84-1.7,85.1-2,86.3-2
	c1.7,0,3.5,0.6,4.9,1.7l76.3,61h198.4l76.3-61c1.4-1.1,3.2-1.7,4.9-1.7c1.2,0,2.3,0.3,3.4,0.8C453.2,0.1,454.9,2.8,454.9,5.8z
	 M423.6,217.6c0-34.5-28.2-62.8-62.8-62.8H172.6c-34.5,0-62.8,28.2-62.8,62.8c0,34.5,28.2,62.8,62.8,62.8h188.2
	C395.3,280.4,423.6,252.1,423.6,217.6z"/>
</svg>
