<?xml version="1.0" encoding="utf-8"?>
<!-- Generator: Adobe Illustrator 16.0.0, SVG Export Plug-In . SVG Version: 6.00 Build 0)  -->
<!DOCTYPE svg PUBLIC "-//W3C//DTD SVG 1.1 Tiny//EN" "http://www.w3.org/Graphics/SVG/1.1/DTD/svg11-tiny.dtd">
<svg class="icon" alt="rdio" version="1.1" baseProfile="tiny" id="Layer_1" xmlns="http://www.w3.org/2000/svg" xmlns:xlink="http://www.w3.org/1999/xlink"
	 x="0px" y="0px" width="500px" height="500px" viewBox="0 0 500 500" xml:space="preserve">
<path d="M415.9,222.3c63.5-18.8,100.8-86.1,74-87.5c-68.7-3.5-127.4-36.8-167-61.6c-4.2-2.8-8.5-5.4-12.9-7.8v154.8
	c0,51.2-31,91.9-66.1,108.9c-51,24.6-107.7,9.2-126.8-34.5c-19.1-43.7,6.8-99,57.7-123.6c28.2-13.6,58.1-14.9,82.5-6V44.9
	c-15.4-3.7-31.4-5.7-48-5.7C94.5,39.1,1.3,133.5,1.3,250s93.2,210.9,208.2,210.9S417.7,366.5,417.7,250
	C417.7,240.6,417.1,231.4,415.9,222.3z"/>
</svg>
