<?xml version="1.0" encoding="utf-8"?>
<!-- Generator: Adobe Illustrator 16.0.0, SVG Export Plug-In . SVG Version: 6.00 Build 0)  -->
<!DOCTYPE svg PUBLIC "-//W3C//DTD SVG 1.1 Tiny//EN" "http://www.w3.org/Graphics/SVG/1.1/DTD/svg11-tiny.dtd">
<svg version="1.1" class="icon" alt="twitter" baseProfile="tiny" id="Layer_1" xmlns="http://www.w3.org/2000/svg" xmlns:xlink="http://www.w3.org/1999/xlink"
	 x="0px" y="0px" width="500px" height="500px" viewBox="0 0 500 500" xml:space="preserve">
<path d="M499.4,95.3c-18.4,8.1-38.1,13.6-58.8,16.1c21.1-12.7,37.3-32.7,45-56.6c-19.8,11.7-41.7,20.2-65,24.8
	c-18.7-19.9-45.3-32.3-74.7-32.3c-56.5,0-102.3,45.8-102.3,102.3c0,8,0.9,15.8,2.6,23.3c-85-4.3-160.4-45-210.9-106.9
	c-8.8,15.1-13.9,32.7-13.9,51.4c0,35.5,18.1,66.8,45.5,85.2c-16.8-0.5-32.5-5.1-46.3-12.8c0,0.4,0,0.9,0,1.3
	c0,49.6,35.3,90.9,82.1,100.3c-8.6,2.3-17.6,3.6-27,3.6c-6.6,0-13-0.6-19.3-1.8c13,40.6,50.8,70.2,95.6,71.1
	c-35,27.4-79.1,43.8-127.1,43.8c-8.3,0-16.4-0.5-24.4-1.4c45.3,29,99.1,46,156.8,46c188.2,0,291.1-155.9,291.1-291.1
	c0-4.4-0.1-8.8-0.3-13.2C468.3,133.9,485.6,115.9,499.4,95.3z"/>
</svg>
