<?xml version="1.0" encoding="utf-8"?>
<!-- Generator: Adobe Illustrator 16.0.0, SVG Export Plug-In . SVG Version: 6.00 Build 0)  -->
<!DOCTYPE svg PUBLIC "-//W3C//DTD SVG 1.1 Tiny//EN" "http://www.w3.org/Graphics/SVG/1.1/DTD/svg11-tiny.dtd">
<svg version="1.1" baseProfile="tiny" id="Layer_1" xmlns="http://www.w3.org/2000/svg" xmlns:xlink="http://www.w3.org/1999/xlink"
	 x="0px" y="0px" width="1200px" height="380.1px" viewBox="0 0 1200 380.1" xml:space="preserve">
<g fill="#444">
	<path fill-rule="evenodd" d="M315.8,312.9c5.4,4.8,11.5,8.9,12.6,17.3c0.6,4.1,3,8,4.6,11.9c1.4,3.4,2.7,6.7,4.3,10
		c1.2,2.4,3.3,2.7,5.3,0.8c1.8-1.8,3.6-3.8,4.8-6c4.3-7.5,7.2-15.5,8.5-24c0.1-0.4,0-0.9,0.1-1.3c4.3-13,3.4-26.6,4.3-40
		c0.8-11.9,0.3-23.9,0.3-35.8c0-6.4,0-12.8,0.1-19.2c0.2-11.1,0.4-22.2,0.6-33.3c0-0.8-0.2-1.7-0.4-3.4c-1.2,1.3-2,2.1-2.6,3
		c-3.6,6-7.2,12.1-10.8,18.2c-4.8,8.1-10.8,15.3-16.9,22.5c-2.1,2.4-4.1,4.9-6.2,7.2c-4.5,5-10.1,8.3-16.5,10.5
		c-6.3,2.2-12.6,2-18.9,0.2c-1.8-0.5-3.7-1.1-5.6-1.3c-10.6-0.9-17.5-6.9-22.3-15.9c-4.7-8.8-6.8-18.3-8.6-28
		c-1.5-7.8-1.4-15.7-3-23.4c-2.3-2.1-5-0.9-7.3-0.4c-11.2,2.6-21.5-1-31.9-4c-1.5-0.4-2.8-1.7-4.1-2.5c1.3-7.1,4-9.8,10.6-10.1
		c4.9-0.2,9.8,0.3,14.7,0.1c6.6-0.2,12.7-2.3,17.9-6.1c1.8-1.3,2.7-4.2,3.5-6.6c0.8-2.4,1.2-5,1.4-7.5c0.8-9.9,4.7-19,7.7-28.3
		c1.8-5.5,3.9-10.9,6.5-16c4.1-8.3,9.9-15.6,17-21.5c4.5-3.8,10.5-4.7,16.3-5.4c7.8-0.9,15.3,0.2,22.8,2.6c5.4,1.7,9.3,5.2,12.3,9.7
		c1.3,1.9,2.3,4.2,2.6,6.5c0.7,5.5,1.2,11.1,1.3,16.6c0.1,9.2-3.4,17.1-9.4,23.9c-10.8,12.1-24,21.1-38,29c-2.4,1.4-4.8,2.9-7.3,4
		c-2.8,1.2-4.7,3.3-5.2,6.1c-0.7,4-1.5,8.1-1.1,12.1c0.8,8.3,2.1,16.5,3.5,24.7c1.2,7.4,3.3,14.6,6.8,21.3c2.4,4.6,4.2,5.4,8.4,2
		c4-3.2,7.5-7,10.8-10.8c10.6-12.1,19.3-25.5,26.9-39.7c3.7-6.7,8.1-13,12.1-19.6c2.8-4.8,5.4-9.7,8.1-14.5c1.6-2.8,3.2-5.5,4.8-8.3
		c3.4-6,4.6-12.8,7-19.2c2.1-5.6,4.4-11.1,6.9-16.5c1.7-3.8,4.7-6.1,9.1-6c4.3,0,8.6,0,12.8,0.5c2,0.2,3.9,1.6,5.7,2.7
		c2,1.2,2.9,3.2,2.3,5.5c-0.8,3.3-1.4,6.8-2.9,9.8c-7.9,15.6-11.1,32.2-11.1,49.6c0,9.1-0.4,18.3-0.5,27.4
		c-0.2,15.8-0.4,31.6-0.5,47.4c-0.2,15.6,0.2,31.2-0.7,46.8c-0.8,14.2-1,28.7-5.6,42.4c-2.6,7.7-5.4,15.3-8.9,22.6
		c-3.5,7.4-8.7,13.8-16.8,16.8c-3.6,1.3-7.3,2.4-11.1,3.1c-2,0.4-4.2-0.1-6.3-0.6c-4.1-1-8.2-2.4-12.3-3.5
		c-11.4-3.2-18.2-10.7-20.8-22.1c-0.5-2.3-0.6-4.7-1.4-6.9c-2.4-6.1-0.2-11.8,0.9-17.6c0.3-1.4,1.9-2.7,3.1-3.9
		C311.4,316.9,313.2,315.3,315.8,312.9z M286,138.9c2,1.1,3.5,0.1,4.7-1c6-5.2,11.9-10.4,17.7-15.7c0.9-0.8,1.7-2,2.2-3.1
		c3.3-7.8,4.5-16,3.8-24.4c-0.1-1.1-1.1-2-1.7-3c-7.2,3.3-13.6,10.2-16.9,18c-3.2,7.7-6.2,15.4-9.3,23.1
		C285.9,134.8,284.9,136.8,286,138.9z"/>
	<path fill-rule="evenodd" d="M815.7,74.3c0.4-4.1,0.8-7.6,1.1-11.2c0.8-8.3,1.7-16.6,2.5-24.9c0.8-8.3,1.6-16.6,2.5-24.9
		c0.2-1.7,0.4-3.4,0.8-5.1c1.4-4.7,4.8-6.9,9.7-6.2c5.7,0.8,11.3,1.9,17,2.9c6.9,13,10.1,26.8,10.4,41.3c0.4,15.9-1.3,31.6-4.6,47.1
		c-2.3,11.1-5.7,21.9-9,32.7c-3.2,10.7-5.3,21.5-5.7,32.7c-0.5,15-1.5,29.9-2.1,44.8c-0.2,4.4,0.8,9,0.2,13.4
		c-1,6.7,0.6,13.2,0.4,19.8c-0.2,6.6,0.2,13.2,2,19.7c0.5,2,0.5,4.2,0.8,6.6c-2,1.3-3.8,2.8-5.9,3.8c-2.8,1.3-5.9,1.6-8.4-0.7
		c-1.9-1.8-4.1-2.9-6.6-3.7c-3.9-1.3-6.2-4-7.4-8.1c-2.3-8.3-3.9-16.6-3.4-25.2c0.2-3.5-0.6-7.1-1.2-12.1c-2.8,4.6-4.8,8-7,11.2
		c-7.4,11.2-14.8,22.4-25.1,31.4c-3.5,3.1-7.7,4.6-11.9,6c-2.6,0.8-5.5,1-8.1,1.7c-7.7,2-14.8-0.2-21.8-2.8c-2.8-1-5.5-2.3-8.2-3.6
		c-10.8-4.9-17-13.4-18.7-25c-1.2-8-1-16.1-0.7-24.3c0.4-9,1.9-17.8,3.5-26.6c1.2-6.7,3.2-13.3,5.5-19.7c4.2-12.1,8.7-24.1,13.5-36
		c2.5-6.1,5.7-11.9,8.9-17.7c2.4-4.5,5.3-8.7,8-13.1c0.4-0.7,0.8-1.6,1.3-2.2c8-8,14.7-17.2,25.2-22.5c5.1-2.6,10.4-3.7,16-3.9
		c7.6-0.3,14.8,1.5,22,3.5C812.6,73.8,814,74,815.7,74.3z M736.1,220.7c0.6,7.9,0.6,15.4,3.4,22.5c2.8,7.1,5.7,8.1,12,3.8
		c6.2-4.2,11.3-9.7,15.9-15.7c5.7-7.3,10-15.4,14.8-23.2c3.7-6,6.9-12.2,10.1-18.5c3.6-7.3,7-14.7,10.2-22.1
		c2.9-6.7,5.6-13.4,8-20.3c1.1-3.2,1.1-6.7,1.6-10.1c0.3-2.3-0.2-4.2-2.4-5.5c-2.8-1.7-3.2-4.3-2.5-7.3c0.5-2.1,0.8-4.2,1.4-6.3
		c1-3.8,0.9-7.5-0.2-11.4c-1.1-3.5-1.7-7-2.5-10.6c-1.1-4.7-3.9-6.5-8.4-4.6c-3.1,1.3-6.1,3.2-8.7,5.3c-9.7,8.3-16.5,19-24.3,28.9
		c-0.9,1.2-1.6,2.5-2.2,3.9c-1.6,3.5-3.2,6.9-4.7,10.4c-6.6,15.1-13.1,30.1-16.7,46.3c-0.7,3.3-1.2,6.7-2.1,10
		C736.6,204.5,736.5,212.8,736.1,220.7z"/>
	<path fill-rule="evenodd" d="M105.5,90.2c2.2-1.1,1.8-3,2-4.6c0.9-11,2.7-10.3,11.5-11.9c3.1-0.6,6.4-0.6,9.6-0.2
		c3.5,0.4,6.7,2.2,7.8,5.8c0.8,2.4,1.2,5,1.1,7.5c-0.1,4.3-0.8,8.5-1.2,12.7c-1.3,12.3-2.5,24.7-3.9,37c-1.8,16.2-1.5,32.5-1.1,48.7
		c0.3,12.2,1.5,24.3,2.3,36.4c0.2,2.6,0.8,5.2,0.4,7.7c-0.6,4.8,0.7,9,3.8,12.5c3.6,4.2,3.3,8.5,1.2,13.1c-1.5,3.2-6.4,6.6-9.7,6
		c-3.9-0.7-7.7-2-11.6-2.9c-6.8-1.6-10-5.7-10.1-12.7c-0.2-6.4-1.2-12.7-1.8-19.1c-0.7-7.4-1.4-14.7-2.2-23.2
		c-1.2,1.4-1.9,2-2.4,2.7c-0.7,1.1-1.3,2.2-1.7,3.5c-3,10.4-8.7,19.5-13.3,29.1c-1.2,2.5-3.1,4.6-4.7,6.8c-0.5,0.7-1.3,1.2-1.6,2
		c-2.6,6.6-8.3,10.4-13.6,14.2c-4.8,3.5-10.4,6.4-17.3,5c-5.8-1.1-11.7-1.9-17.6-2.9c-6.9-1.2-10.6-5-13.1-10.8
		c-2.1-4.9-4.4-9.8-5.9-14.8c-1.9-6.3-3.2-12.8-4.4-19.3c-2.2-12.2-2.7-24.6-2-37c0.5-9.3,0.1-18.7,0.5-28.1
		c0.2-4.9,1.2-9.7,1.8-14.6c0.8-6.6,1.3-13.2,2.6-19.6c1.8-9,1.8-18.3,4.6-27.1C18.9,81.6,22.2,71,29.1,62c3.2-4.2,6.7-8.2,11.8-9.4
		c9.1-2.2,18.1-4.3,27.7-0.8c7.3,2.7,13.6,6.5,18.4,12.2c5.6,6.6,11.6,13.2,14.8,21.5C102.5,87.5,103.6,89.3,105.5,90.2z
		 M93.9,140.6c-0.5-2.5-0.8-5-1.5-7.5c-1.6-5.5-3.7-10.9-5.1-16.5c-3.5-14-10.5-26.5-17.5-38.9c-1.8-3.3-4.9-5.9-7.8-8.5
		c-2.3-2.1-5-1.6-6.5,1.1c-2.3,4.1-5,8.1-6.5,12.5c-4.3,12.5-8.2,25.2-9.9,38.4c-0.3,2.8-0.7,5.5-1,8.3c-1.3,12.5-2.8,25-4,37.5
		c-1.1,11.7-0.4,23.4,0.4,35.2c0.3,4.7,1.3,9.2,1.2,14c-0.1,3,2,6.1,2.3,9.2c0.6,6.8,4,12.6,6.5,18.7c1.7,4.2,3.8,4.5,7.2,1.2
		c1.2-1.2,2.2-2.6,3.1-4c1.4-2.1,2.6-4.4,4.1-6.5c5.9-8.5,9.9-18,13.8-27.4c4.4-10.9,8-22.1,11.7-33.2c3.1-9.3,5.7-18.8,8.5-28.2
		C93.3,144.1,93.6,142.4,93.9,140.6z"/>
	<path fill-rule="evenodd" d="M502.3,194.5c-0.6,1.1-1.2,2.2-1.6,3.4c-1.7,4.8-2.9,9.9-5.1,14.4c-4.1,8.7-8.5,17.3-15.2,24.3
		c-7.6,8-17.2,10.8-28,9.8c-0.8-0.1-1.7-0.4-2.5-0.6c-3.9-1.1-7.8-2.1-11.7-3.4c-2-0.6-4.3-1.3-5.7-2.7
		c-5.8-5.9-10.2-12.6-11.2-21.1c-0.7-5.9-1.9-11.8-2.4-17.8c-1.3-13.6,1-26.8,4.7-39.8c2.8-9.6,5.7-19.3,9.5-28.5
		c3.5-8.7,7.9-17,12.3-25.3c4-7.5,8-15.1,13.6-21.7c2.5-2.9,4.8-6,7.4-8.8c3.8-3.9,8.6-6.5,13.9-7.6c5.9-1.3,11.8-2,17.8-0.6
		c3.1,0.7,6.3,0.9,9.9,1.4c3.9-6,9.8-6.5,16.3-4.9c1,0.3,2.1,0.1,3.2,0.3c7.4,1.2,11.7,6.3,11.2,13.8c-0.8,12.6-1.9,25.1-2.6,37.7
		c-0.4,6.6-0.2,13.2-0.4,19.8c-0.1,3.8-0.9,7.6-1,11.4c-0.3,7.2-0.3,14.5-0.6,21.8c-0.4,10.5-1.2,20.9-1.5,31.3
		c-0.3,9.8-0.3,19.6-0.4,29.5c0,2.1,0.3,4.2,2.3,5.7c0.8,0.6,1.3,1.7,1.5,2.7c1.7,11,4.1,22.1-4.3,32c-4,2.3-8.1,2-12.4-0.1
		c-2.9-1.4-5.9-2.6-8.9-3.7c-3.5-1.3-4.7-3.7-5.1-7.3c-1.3-10.6-1.6-21.3-1.6-32c0-9.6,0.1-19.3,0-28.9c0-1.5-0.2-3-0.3-4.4
		C503,194.6,502.6,194.5,502.3,194.5z M452.3,227c3.1,0,4.2-2,5.6-3.6c4.9-5.5,8.4-11.9,10.9-18.7c5.6-15.2,11-30.5,16-45.9
		c4-12.2,7.3-24.5,10.8-36.8c1.7-5.7,3.2-11.5,4.9-17.2c0.6-2.2,0.7-4.1-1.2-5.9c-1-1-1.5-2.5-2.1-3.9c-0.9-1.9-1.7-3.8-2.8-6.3
		c-1.8,1.2-3.4,1.9-4.4,3.1c-7.8,8.3-14.1,17.8-19.3,27.8c-7.4,14.2-14,28.7-18.8,44.1c-2.9,9.3-4.1,18.8-4.6,28.3
		c-0.4,8.9-0.3,17.9,1.7,26.7C449.7,221.6,450.5,224.3,452.3,227z"/>
	<path fill-rule="evenodd" d="M1074.5,199.4c-3.2,0.1-3.8,2.2-4.7,3.8c-5.1,9.2-9.8,18.5-15.3,27.5c-4.5,7.4-9.7,14.4-16.8,19.9
		c-8.5,6.6-17.8,8.8-28.3,7.4c-0.8-0.1-1.7-0.2-2.5-0.6c-4.8-2.3-9.8-4.4-14.4-7c-9.4-5.3-14.1-13.6-13.8-24.3
		c0.4-16.2,3.6-31.6,10.4-46.5c3.8-8.4,7.3-16.9,12-24.7c5-8.4,10.3-16.7,15.8-24.9c4-6,8.2-12.1,12.9-17.5c4.3-5,9.2-9.5,14.3-13.7
		c2.7-2.2,5.5-4.5,9-6c5.4-2.3,10.7-2.9,16.3-2.1c7.2,1.1,14.3,2.3,21,6.1c1-1.4,2.1-2.4,2.7-3.7c2.4-5,4.5-10.1,6.8-15.2
		c3.1-6.7,8.4-8.9,15.8-6.6c2.2,0.7,4.5,1.4,6.8,1.9c3.4,0.6,5.7,2.7,7.8,5.3c1.3,1.6,1.9,3.4,1.4,5.4c-0.5,2.1-1.1,4.1-2,6.1
		c-3.2,7-6.5,13.9-9.7,20.9c-4.2,9.1-8.1,18.3-10.2,28.1c-0.1,0.4-0.1,0.9-0.3,1.2c-4.6,10.6-5.2,21.9-5.9,33.2
		c-0.5,7.3-0.9,14.5,0.6,21.6c2.4,11.3,4.9,22.6,9.9,33.1c0.5,1,1,1.9,1.6,2.8c4,5.6,4.3,5.6,11.1,4.1c4-0.9,8-1.3,12-1.8
		c3.9-0.4,6.6,1.1,7.9,5c0.3,1,0.9,2,1.2,3c1.2,3.4,0.5,5.8-2.3,7.8c-1.2,0.9-2.7,1.3-3.8,2.3c-8.9,8.1-18,5.5-27.2,0.8
		c-3.6-1.9-6.9-4.4-10.6-6c-6.3-2.8-10.5-8-15.3-12.4c-0.8-0.7-1.3-1.7-1.7-2.7c-3.8-7.6-8.3-15-9.7-23.6
		C1077,204.6,1075.5,202.1,1074.5,199.4z M1075.7,113.5c-10.9,4.6-17.8,12.8-24.4,21c-9.9,12.3-18.1,25.8-25.8,39.6
		c-6.8,12.2-10.8,25.5-15,38.7c-2,6.3-2.4,13-1.7,19.6c0.2,1.7,0.2,3.6,1.9,4.5c1.8,0.9,3.4-0.1,4.6-1.4c2.8-2.9,5.6-5.9,8.3-8.8
		c3.8-4.1,6.3-9,9.1-13.8c6.8-11.6,13.8-23,20.3-34.7c5.7-10.2,11-20.7,16.4-31.1c3.2-6,6.3-12.1,9.3-18.2
		C1081.6,123.2,1079.9,118.3,1075.7,113.5z"/>
	<path fill-rule="evenodd" d="M603.9,125.5c3.8-3.5,5.1-6.7,6.6-9.6c3.6-6.8,7.8-13.2,13-18.9c3.6-4,7.2-7.8,10.9-11.6
		c1.2-1.2,2.6-2.2,3.9-3.2c6.4-5,13.6-5.7,21.2-3.5c1.4,0.4,2.9,0.7,4.4,1c5.9,1.3,9.8,5,12.1,10.4c2.9,6.8,4.5,13.9,4.7,21.2
		c0.2,6.4-0.3,12.8-0.4,19.2c-0.1,2.6,0,5.1-0.1,7.7c-0.4,8.3-0.8,16.6-1.5,24.9c-0.4,5.5-1.3,11-1.9,16.5
		c-1.3,11.9-2.8,23.8-3.8,35.7c-0.7,8.3-0.9,16.6-0.8,24.9c0.1,8.1,0.9,16.2,1.5,24.3c0.3,4,0.7,8,1,12.1c0.1,1.8-0.1,3.3-1.5,4.7
		c-1.7,1.6-3.1,3.5-4.8,5.5c-3,0.6-5.4-1.3-7.6-3.4c-2.6-2.4-5.3-4.3-9.1-4.3c-4.2-5.5-6.2-11.6-6.6-18.4c-0.2-3.8-0.6-7.6-0.8-11.5
		c-1.4-21.6-0.2-43.1,2.8-64.5c1.6-11,2.2-22.1,2.9-33.2c0.7-11.3,0.6-22.6-0.2-33.9c-0.1-2.1-0.6-4.1-1.1-6.8
		c-1.5,0.9-2.7,1.2-3.2,1.9c-4.1,6-8.8,11.5-11.2,18.6c-1.2,3.6-3.6,6.8-5.3,10.2c-7.3,14.5-13.5,29.6-17.8,45.3
		c-2.9,10.7-4.9,21.6-5,32.8c0,3.8-0.9,7.6-1.5,11.4c-0.4,2.4-2.1,3.9-4.5,3.6c-2.9-0.4-6,0.2-8.7-1.7c-1.3-0.9-3.2-0.8-4.9-1.3
		c-3.3-0.9-6.6-1.7-9.8-3c-2.5-1-3.2-2.4-2.4-5.1c1.4-5.1,1.1-10.2,1.1-15.3c0-7.3,0.1-14.6-0.1-21.8c-0.4-17.1-0.8-34.2-1.3-51.3
		c-0.3-7.7-0.9-15.4-1.4-23c-0.3-4.3-0.3-8.5-0.7-12.8c-0.6-5.9-1.4-11.9-2.1-17.8c-0.5-4.6,3.1-9.1,7.7-9.2c4.2,0,8.5,0.5,12.7,1
		c5.4,0.5,8.7,3.6,9.6,8.8c1.1,6.1,1.9,12.2,2.4,18.4C603,108.2,603.3,116.1,603.9,125.5z"/>
	<path fill-rule="evenodd" d="M862.3,254.6c-0.2-3.6-0.8-6.8-0.5-9.9c0.9-9.3,2-18.7,3.3-28c0.5-3.8,1.6-7.5,2.4-11.3
		c2.4-12,2.1-24.2,3.1-36.3c0.8-9.6,0.9-19.2,1.5-28.7c0.7-10.4,1.3-20.8,2.4-31.2c0.3-3.1-0.3-6.4-0.3-9.6c0-3.4-0.4-6.9,0.2-10.2
		c0.9-4.8,3.8-6.6,8.6-6.7c4.7-0.1,9.3,0.3,13.9,1.4c4.5,1,7.2,3.8,7.9,8.2c0.5,3.4,1,6.8,0.8,10.2c-0.4,6.2-1.3,12.3-1.9,18.5
		c-0.2,2.1,0,4.2,0,7.2c1.9-1.1,3-1.5,3.8-2.2c6.9-7.4,14.9-13.4,22.9-19.4c7.5-5.5,16.1-8.9,25.4-9.6c4.8-0.3,9.7-0.1,14.5,1.7
		c3.3,1.3,6.9,2.1,10.5,2.7c6.7,1,10.8,5.9,15,10.2c2.6,2.7,4.2,6.4,5.9,9.9c1.8,3.6-0.7,9.4-4.5,10.6c-2.5,0.8-5-0.1-6.3-2.1
		c-3.4-5.6-9.7-7.6-14-12.1c-2.6-2.7-6.7-2.7-10.4-1.7c-6.4,1.8-12.5,4.2-17.4,9.1c-6.1,6-12.5,11.6-18.9,17.3
		c-8.6,7.7-14,17.6-19.1,27.8c-1.3,2.7-2.7,5.3-3.9,8.1c-4.1,9.7-6.8,19.9-8.8,30.1c-1.6,8.1-1.9,16.5-2.8,24.8
		c-0.9,8.1-2.2,16.1-5.5,23.6c-2,4.5-6.8,7-10.8,4.4c-3.4-2.2-7-2.9-10.7-3.8C866.8,256.9,864.9,255.8,862.3,254.6z"/>
	<path fill-rule="evenodd" d="M162.7,221.8c-0.2-6-0.6-11.9-0.6-17.9c0-4,0.7-8.1,0.7-12.1c0.1-5.1-0.2-10.2-0.2-15.3
		c0-2.8,0.3-5.5,0.4-8.3c0.9-20.5,1.6-41,2.6-61.4c0.5-10.6,1.6-21.3,2.1-31.9c0.4-9,0.1-18,0.8-26.9c0.9-12.6,2.5-25.1,3.6-37.6
		c0.4-4,2.6-6,6.3-6.9c5.1-1.3,10.2-1.3,15.3-0.6c3.6,0.4,6.4,2.7,6.9,6.6c0.5,3.4,0.9,6.8,0.7,10.2c-0.7,10.4-1.5,20.8-2.7,31.2
		c-1.2,10.4-1.4,20.9-2.4,31.2c-1.4,14.4-1.9,28.9-2.8,43.4c-0.5,7.9-1.1,15.7-1.4,23.6c-0.3,7.4-0.3,14.9-0.4,22.3
		c-0.2,10.3-0.3,20.5-0.6,30.8c-0.1,3.8-1,7.7-0.4,11.4c0.8,4.8,2.3,9.6,4.3,14c2.5,5.7-1.3,16.3-7.5,18.4c-1.4,0.4-3,0.8-4.3,0.6
		c-4.8-0.9-9.6-2.2-14.4-3.1c-3-0.6-4.5-2.2-4.8-5.1c-0.7-5.5-1.4-11-2.1-16.5C162.2,221.9,162.5,221.8,162.7,221.8z"/>
	<path fill-rule="evenodd" d="M1188.8,204.2c-6,2.3-9.4-1.9-13.7-3.4c-0.8-0.3-1.2-1.7-1.9-2.5c-1.5-1.7-2.8-4-4.7-5
		c-3.7-2-4.6-5.5-5.8-8.9c-0.9-2.5,1.1-6.1,3.8-7.4c1.5-0.7,3.4-1.5,4.9-1.2c5,1.1,9.9,2.4,14.7,4c2.6,0.9,4.4,3.3,5.5,6
		c0.5,1.2,1.1,2.4,1.4,3.6C1194.9,199.8,1195.6,197.9,1188.8,204.2z"/>
	<path fill-rule="evenodd" d="M377.9,51.4c2-4.4,5.5-6.5,10.5-6.8c5.1-0.3,9.7,1,14.3,3.1c3.4,1.6,3.7,4.6,3.3,8.9
		c-0.3,3.4-2.4,4.9-6.3,5c-1.7,0.1-3.5,0-5-0.5c-3.7-1.1-7.3-2.3-10.9-3.8C381.2,56.3,378.7,54.8,377.9,51.4z"/>
</g>
</svg>
